<?xml version="1.0" encoding="utf-8"?>
<!-- Svg Vector Icons : http://www.onlinewebfonts.com/icon -->
<!DOCTYPE svg PUBLIC "-//W3C//DTD SVG 1.1//EN" "http://www.w3.org/Graphics/SVG/1.1/DTD/svg11.dtd">
<svg version="1.1" xmlns="http://www.w3.org/2000/svg" xmlns:xlink="http://www.w3.org/1999/xlink" x="0px" y="0px" viewBox="0 0 1000 1000" enable-background="new 0 0 1000 1000" xml:space="preserve">
<metadata> Svg Vector Icons : http://www.onlinewebfonts.com/icon </metadata>
<g><path d="M428.5,402.6l-2.2,1.1v0.3l2.2,0.8v4v92.4V572v73.8v295.3l71.3,48.9l0.5-0.3v0.3l65.9-45.7v-0.3v-247v-51.6V572v-71.3v-91.6v-2.4V404l-69.2-30.5L428.5,402.6z"/><path d="M926.5,219.1L499.9,10L73,219.1v476.4l183.5,127V316.1h2.2h2.2l-3-1.6l-1.1-0.3l243.2-107.8l236.7,108.1v3.5l-1.1,0.6v281.8v227l-54.6,37.9V631.7v-54.8V354.8v-7v-0.5l-0.6,0.3l-182.1-80.8l-180.8,79.7l-1.1-1.1v1.1v0.2v9.2V582v281.5l51.6,35.9V612v-80v-10.3V382.1v-0.6v-1.1v-7h1.6l-1.6-0.5l129.2-60.8l131.6,61.6v5.9v0.8v142.1v8.1V608v53.5v239.7v0.3l52.2-35.9l54.6-37.8L927,695.5V219.1H926.5z"/></g>
</svg>
