<?xml version="1.0" encoding="utf-8"?>
<!-- Svg Vector Icons : http://www.onlinewebfonts.com/icon -->
<!DOCTYPE svg PUBLIC "-//W3C//DTD SVG 1.1//EN" "http://www.w3.org/Graphics/SVG/1.1/DTD/svg11.dtd">
<svg version="1.1" xmlns="http://www.w3.org/2000/svg" xmlns:xlink="http://www.w3.org/1999/xlink" x="0px" y="0px" viewBox="0 0 1000 1000" enable-background="new 0 0 1000 1000" xml:space="preserve">
<metadata> Svg Vector Icons : http://www.onlinewebfonts.com/icon </metadata>
<g><g><path d="M663.3,720v-44.9c60-33.8,108.9-118.1,108.9-202.3c0-135.3,0-245-163.3-245c-163.3,0-163.3,109.7-163.3,245c0,84.3,48.9,168.5,108.9,202.3V720c-184.7,15.1-326.7,105.8-326.7,215.6H990C990,825.8,848,735.1,663.3,720z"/><path d="M288.3,741c47.1-30.8,105.6-54.1,170-68.4c-12.8-15.1-24.4-32-34.4-50.2c-25.9-47-39.6-98.7-39.6-149.6c0-73.2,0-142.3,26-198.9c25.3-54.9,70.7-88.9,135.4-101.6c-14.4-65.1-52.7-107.8-154.7-107.8c-163.3,0-163.3,109.7-163.3,245c0,84.3,48.9,168.5,108.9,202.3v44.9C152,571.8,10,662.5,10,772.2h237.3C259.7,761.2,273.4,750.8,288.3,741L288.3,741z"/></g></g>
</svg>
