<?xml version="1.0" encoding="utf-8"?>
<!-- Svg Vector Icons : http://www.onlinewebfonts.com/icon -->
<!DOCTYPE svg PUBLIC "-//W3C//DTD SVG 1.1//EN" "http://www.w3.org/Graphics/SVG/1.1/DTD/svg11.dtd">
<svg version="1.1" xmlns="http://www.w3.org/2000/svg" xmlns:xlink="http://www.w3.org/1999/xlink" x="0px" y="0px" viewBox="0 0 1000 1000" enable-background="new 0 0 1000 1000" xml:space="preserve">
<metadata> Svg Vector Icons : http://www.onlinewebfonts.com/icon </metadata>
<g><path d="M989.8,264.2c-0.8,4.1-1.4,8.2-2.7,12.4c-9.7,36-32.5,58.9-68.6,67.9c-25.1,6.4-50.4,11.9-76,17.5c-5.1,1-6.2,3.3-6.2,8c0.2,81.9-0.4,163.9,0.4,245.6c0.4,39.1-15.4,69.6-45.5,93.3c-25.7,20.6-55.6,32.9-86.9,42.4c-37.5,11.1-76.2,17.1-115.1,20.6c-44.7,3.9-89.1,4.7-133.8,2.9c-57.6-2.5-114.9-8.4-170.1-26.4c-30.3-9.9-58.9-22.9-83-44.3c-26.1-23.1-39.7-51.5-39.5-86.9c0.4-82.4,0.2-164.7,0.2-247.3c0-4.7-1-7-6.2-8c-25.1-5.6-50.2-11.3-75.4-17.3C43.4,335.8,16.4,306,10.8,267c-0.2-1-0.6-1.9-0.8-2.9c0-6.2,0-12.1,0-18.3c0.4-1,0.8-1.9,1-2.9c5.4-38.1,31.7-67.9,69-76.8c117.4-27.4,234.7-54.4,352.3-81.5c19.6-4.5,39.3-8.9,58.9-13.4c5.8,0,11.5,0,17.3,0c4.5,1,8.9,1.9,13.4,2.9c131.8,30.5,263.5,60.5,395.3,91.2c36.9,8.6,60.1,31.7,70,68.4c1,4.1,1.6,8.6,2.7,12.8C989.8,252.6,989.8,258.4,989.8,264.2z M775.7,378c-2.3,0.4-3.5,0.4-4.9,0.8c-79.9,18.5-159.8,36.9-239.4,55.4c-16.7,3.9-33.4,6.6-50.4,2.7c-79.5-18.3-158.9-36.6-238.6-55c-5.8-1.4-11.7-2.7-18.3-4.1c0,2.9,0,4.9,0,7c0,76.4,0.4,153-0.2,229.4c-0.2,14.8,5.1,25.9,15.6,35.4c4.1,3.7,8.4,7.4,13.2,10.5c21,14.6,44.5,23.9,68.8,31.3c42.2,13,85.4,19.1,129.3,21.8c63.2,3.7,126,1.2,188.2-11.5c34-7,67.1-17.1,97.4-34.4c11.9-6.8,23.3-14.8,31.9-25.9c5.1-6.6,7.8-14,7.8-22.6c-0.2-78,0-156.1,0-233.9C775.7,382.5,775.7,380.7,775.7,378z M498.6,378c3.9-0.6,6.6-0.8,9.3-1.4c101.5-23.5,203-46.7,304.5-70.2c30.3-7,60.5-14,90.8-21c12.8-2.9,21.4-10.1,24.7-23.1c4.5-18.1-6.4-33.6-26.4-38.3c-130.3-30.1-260.9-60.1-391.2-90.2c-7-1.6-13.6-1.6-20.6,0c-53.7,12.6-107.5,24.9-161.2,37.3c-77,17.7-154,35.4-231,53.3c-16.3,3.7-26.1,15.4-26.1,30.7c0,15.2,10.1,26.6,26.4,30.5c123.1,28.4,246.2,56.8,369.4,85.2C478,373.5,488.9,376,498.6,378z"/><path d="M921.6,928.8c-3.5-0.8-6.8-1.6-10.3-2.7c-28.6-8.4-46.7-36-43.4-66.3c3.3-29,11.5-56.8,25.5-82.6c4.7-8.9,11.1-17.3,18.1-24.3c10.7-10.9,23.5-10.9,34.2,0.2c7.6,8,14.2,17.3,19.6,27c12.6,23.7,20,49.2,23.7,76c0.2,1.2,0.6,2.3,1,3.3c0,5.1,0,10.3,0,15.2c-0.4,1-0.8,2.3-1,3.3c-5.1,24.5-19.6,40.6-43.2,48.2c-3.1,1-6.6,1.6-9.7,2.5C931.1,928.8,926.4,928.8,921.6,928.8z"/><path d="M898.2,545.6c0-45.5,0-91,0-136.5c0-16.7,11.1-29.2,27.2-31.1c17.5-2.1,32.9,11.1,34,28.8c0,1,0,2.1,0,3.1c0,90.8,0,181.8,0,272.6c0,22.2-20.2,37.3-40.8,30.1c-12.4-4.3-20.4-15.6-20.4-29.4C898.2,637.4,898.2,591.5,898.2,545.6z"/></g>
</svg>
