<?xml version="1.0" encoding="utf-8"?>
<!-- Svg Vector Icons : http://www.onlinewebfonts.com/icon -->
<!DOCTYPE svg PUBLIC "-//W3C//DTD SVG 1.1//EN" "http://www.w3.org/Graphics/SVG/1.1/DTD/svg11.dtd">
<svg version="1.1" xmlns="http://www.w3.org/2000/svg" xmlns:xlink="http://www.w3.org/1999/xlink" x="0px" y="0px" viewBox="0 0 1000 1000" enable-background="new 0 0 1000 1000" xml:space="preserve">
<metadata> Svg Vector Icons : http://www.onlinewebfonts.com/icon </metadata>
<g><g transform="translate(0.000000,511.000000) scale(0.100000,-0.100000)"><path d="M8549.7,4360.4c-604.2-609.9-644-655.3-672.3-791.5c-34-136.2-70.9-178.7-879.4-987.2l-845.4-845.4L5920,1895.2c-448.2,306.4-695,397.1-1066.6,400c-235.4,0-272.3-8.5-448.2-93.6c-232.6-116.3-519.1-374.5-621.3-564.5c-42.6-76.6-102.1-255.3-133.3-397.1c-31.2-141.8-90.8-323.4-130.5-405.7c-99.3-192.9-283.7-394.3-425.5-456.7c-62.4-28.4-348.9-82.3-638.3-122C1715.8,153.4,1384,48.4,1009.5-201.2C785.4-351.5,498.9-649.4,362.7-876.3c-252.5-417-326.2-958.8-207.1-1480.8c119.2-507.8,436.9-1043.9,882.2-1489.3c445.4-445.4,981.5-763.1,1489.3-882.2c522-119.1,1063.8-45.4,1480.8,207.1c226.9,136.2,524.8,422.7,675.2,646.8c249.6,374.5,354.6,706.4,456.7,1443.9c39.7,289.3,90.8,570.2,113.5,624.1c85.1,207.1,212.8,286.5,692.2,439.7c652.5,209.9,936.1,462.4,1018.4,907.8c17,93.6,31.2,178.7,31.2,190c0,11.4-122,79.5-269.5,150.4c-320.5,150.3-556,363.1-612.7,550.3c-73.8,249.6-73.8,249.6,1117.7,1443.9C8285.9,2933.5,8314.2,2961.8,8458.9,2993c141.8,31.2,175.9,62.4,794.3,680.8l646.8,646.8l-110.6,232.6l-113.5,229.8l-218.4,110.6c-122,62.4-229.8,110.6-241.1,110.6C9202.1,5004.3,8904.3,4715,8549.7,4360.4z M5190.9,1739.2c161.7-59.6,584.4-320.6,584.4-357.4c0-14.2-226.9-249.6-504.9-527.6l-505-502.1l-110.6,113.5l-110.6,113.5l-235.5-232.6l-235.4-235.4l459.6-459.6l462.4-462.4l232.6,232.6l235.4,232.6l-113.5,116.3l-113.5,116.3l198.6,195.8c107.8,107.8,201.4,190.1,204.2,181.5c5.7-5.7,39.7-73.8,79.4-153.2c87.9-178.7,351.8-442.5,556-556c85.1-48.2,150.4-102.1,144.7-122c-25.5-76.6-263.8-198.6-663.8-340.4c-473.8-167.4-626.9-246.8-765.9-391.5c-181.6-192.9-261-425.5-334.7-1015.6c-110.6-868-252.5-1211.3-641.1-1574.4c-218.4-204.3-436.9-314.9-731.9-374.5c-587.2-122-1287.9,161.7-1892.1,768.8c-692.2,689.3-953.2,1478-706.4,2133.3c87.9,238.3,192.9,385.8,419.8,598.6c323.4,300.7,652.5,425.5,1381.5,522c729.1,93.6,936.1,167.4,1168.8,417c258.1,275.2,408.5,573,476.6,941.8c19.9,102.1,65.2,235.4,99.3,297.9c65.2,113.5,283.7,300.7,414.2,351.8C4762.6,1815.8,5026.4,1801.6,5190.9,1739.2z"/><path d="M3142.8-819.6l-232.6-232.6l462.4-462.4l459.6-459.6l235.4,235.4l232.6,232.6l-462.4,462.4l-459.6,459.6L3142.8-819.6z"/><path d="M3003.7-2595.4c-161.7-102.1-147.5-340.4,31.2-425.5c113.5-53.9,241.1-11.3,309.2,105c45.4,76.6,48.2,105,19.9,190.1c-19.9,62.4-65.2,116.3-113.5,141.8C3142.8-2530.2,3111.6-2530.2,3003.7-2595.4z"/><path d="M3852-2697.6c-167.4-70.9-198.6-252.5-65.3-385.8c45.4-45.4,110.6-82.3,144.7-82.3c82.3,0,215.6,73.7,238.3,127.7C4254.8-2811,4064.7-2609.6,3852-2697.6z"/><path d="M2385.3-3208.2c-48.2-45.4-70.9-99.3-70.9-170.2c0-70.9,22.7-124.8,70.9-170.2c139-141.8,411.3-48.2,411.3,139C2796.7-3174.1,2541.4-3049.3,2385.3-3208.2z"/><path d="M3242.1-3281.9c-68.1-39.7-139-207.1-113.5-272.3c36.9-102.1,130.5-178.7,224.1-178.7c130.5,0,178.7,25.5,224.1,116.3c62.4,119.2,51.1,190.1-39.7,283.7C3449.1-3245.1,3335.7-3228,3242.1-3281.9z"/></g></g>
</svg>
