<?xml version="1.0" encoding="utf-8"?>
<!-- Svg Vector Icons : http://www.onlinewebfonts.com/icon -->
<!DOCTYPE svg PUBLIC "-//W3C//DTD SVG 1.1//EN" "http://www.w3.org/Graphics/SVG/1.1/DTD/svg11.dtd">
<svg version="1.1" xmlns="http://www.w3.org/2000/svg" xmlns:xlink="http://www.w3.org/1999/xlink" x="0px" y="0px" viewBox="0 0 1000 1000" enable-background="new 0 0 1000 1000" xml:space="preserve">
<metadata> Svg Vector Icons : http://www.onlinewebfonts.com/icon </metadata>
<g><g transform="translate(0.000000,511.000000) scale(0.100000,-0.100000)"><path d="M4329.9,4996.7c-446.9-53-882.3-179.7-1290.1-377.8C1938.6,4079.8,1169.2,3084.6,902,1852.2c-50.7-228.1-50.7-251.1-57.6-3252.8c-9.2-2971.8-6.9-3024.8,36.9-3112.3c59.9-117.5,186.6-228.1,299.5-258c62.2-16.1,900.8-20.7,2644.7-18.4l2554.8,6.9l96.7,64.5c53,34.6,124.4,106,159,159l64.5,94.4l6.9,573.6l6.9,571.3h304.1c451.5,0,649.6,66.8,875.4,292.6c131.3,131.3,230.4,301.8,267.2,470c13.8,57.6,25.3,446.9,25.3,903v799.4h299.5c396.2,0,518.3,50.7,622,253.4c80.6,161.3,76,205-71.4,836.3c-394,1693.2-529.9,2154-817.8,2757.5C7843,3775.8,7357,4296.4,6700.4,4616.6c-534.5,262.6-1045.9,373.2-1785.4,391.6C4693.9,5012.8,4428.9,5008.2,4329.9,4996.7z M5537,3994.6c1002.1-175.1,1582.7-709.5,1988.1-1831.4c163.6-453.8,264.9-831.6,534.5-1995c11.5-48.4,2.3-50.7-241.9-59.9C7589.6,99,7557.4,92.1,7456,29.9c-78.3-48.4-126.7-101.4-172.8-191.2l-64.5-122.1v-1034.4v-1032.1l-571.3-6.9l-573.6-6.9l-94.4-64.5c-53-34.6-124.4-106-159-159l-64.5-94.4l-6.9-573.6l-6.9-571.3H3772.4H1805v2610.1c0,2253,4.6,2635.4,36.9,2812.8c66.8,389.3,211.9,767.1,414.7,1078.1c493,764.8,1214,1218.7,2163.2,1363.8C4569.5,4061.4,5325.1,4031.5,5537,3994.6z"/><path d="M3228.7,2054.9c-810.9-815.5-827-838.5-792.5-1036.7c16.1-76,110.6-182,792.5-866.2l776.4-776.4l253.4,253.4l253.4,253.4L3906,486.1l-603.6,605.9l603.6,603.6l605.9,605.9l-253.4,253.4c-138.2,138.2-258,253.4-264.9,253.4C3986.6,2808.2,3643.4,2469.5,3228.7,2054.9z"/><path d="M5249.1,2554.8l-253.4-253.4l605.9-605.9l603.6-603.6l-603.6-605.9l-605.9-603.6l253.4-253.4l253.4-253.4L6278.8,152c681.9,684.2,776.3,790.2,792.5,866.2c34.6,198.1,18.4,221.2-792.5,1036.7c-414.7,414.7-757.9,753.3-764.8,753.3S5387.3,2693,5249.1,2554.8z"/></g></g>
</svg>
