<?xml version="1.0" encoding="utf-8"?>
<!-- Svg Vector Icons : http://www.onlinewebfonts.com/icon -->
<!DOCTYPE svg PUBLIC "-//W3C//DTD SVG 1.1//EN" "http://www.w3.org/Graphics/SVG/1.1/DTD/svg11.dtd">
<svg version="1.1" xmlns="http://www.w3.org/2000/svg" xmlns:xlink="http://www.w3.org/1999/xlink" x="0px" y="0px" viewBox="0 0 1000 1000" enable-background="new 0 0 1000 1000" xml:space="preserve">
<metadata> Svg Vector Icons : http://www.onlinewebfonts.com/icon </metadata>
<g><g transform="translate(0.000000,511.000000) scale(0.100000,-0.100000)"><path d="M439.7,4376.6c-112.5-55.1-247.9-197.4-300.6-316.7c-36.7-75.7-39-401.6-39-3949.8c0-3520.7,2.3-3874.1,36.7-3949.8c59.7-128.5,181.3-252.5,307.5-309.8l114.8-55.1h3247.5h3247.5l114.7,55.1c126.2,57.4,247.9,181.3,307.6,309.8c34.4,75.7,36.7,429.2,36.7,3949.8v3867.2l-52.8,107.9c-59.7,121.6-202,259.3-316.7,307.5c-64.3,27.5-592.1,32.1-3341.7,32.1C538.4,4424.8,536.1,4424.8,439.7,4376.6z M7127.5,4149.3c156.1-94.1,144.6,222.6,144.6-4043.9c0-3791.5,0-3864.9-45.9-3936.1c-94.1-156.1,156.1-144.6-3419.7-144.6c-3575.7,0-3325.6-11.5-3419.7,144.6C341-3759.5,341-3686.1,341,105.4c0,4266.6-11.5,3949.8,144.6,4043.9c71.1,45.9,140,45.9,3321,45.9C6987.5,4195.2,7056.4,4195.2,7127.5,4149.3z"/><path d="M1213.1,3417.2c-172.1-55.1-312.1-179-387.9-346.6c-43.6-96.4-48.2-149.2-48.2-814.8c0-665.6,4.6-718.4,48.2-814.8c62-137.7,169.8-245.6,307.5-312.1c114.8-55.1,121.6-55.1,906.6-55.1s791.8,0,906.6,55.1c137.7,66.6,245.6,174.4,307.5,312.1c43.6,96.4,48.2,149.2,48.2,814.8c0,665.6-4.6,718.4-48.2,814.8c-57.4,126.2-163,241-284.6,305.2c-89.5,48.2-119.4,50.5-895.1,55.1C1633.1,3433.3,1245.2,3426.4,1213.1,3417.2z M2886.2,3167.1c43.6-20.7,101-68.8,126.2-103.3c45.9-62,48.2-94.1,48.2-807.9c0-1030.5,84.9-952.5-1021.3-952.5c-846.9,0-869.8,4.6-973.1,144.6c-45.9,62-48.2,94.1-48.2,807.9c0,1030.5-84.9,952.5,1021.3,952.5C2725.6,3208.4,2817.4,3203.8,2886.2,3167.1z"/><path d="M3627.5,3020.2c-16.1-16.1-27.5-57.4-27.5-91.8c0-48.2,13.8-71.1,59.7-87.2c34.4-13.8,617.4-23,1496.4-23c1266.9,0,1445.9,4.6,1491.8,36.7c55.1,39,66.6,121.6,22.9,165.2C6631.8,3059.2,3666.6,3059.2,3627.5,3020.2z"/><path d="M3627.5,2331.6c-16.1-16.1-27.5-57.4-27.5-91.8c0-48.2,13.8-71.1,59.7-87.2c34.4-13.8,617.4-22.9,1496.4-22.9c1266.9,0,1445.9,4.6,1491.8,36.7c55.1,39,66.6,121.6,22.9,165.2C6631.8,2370.7,3666.6,2370.7,3627.5,2331.6z"/><path d="M3627.5,1643.1c-16.1-16.1-27.5-57.4-27.5-91.8c0-48.2,13.8-71.1,59.7-87.2c34.4-13.8,617.4-22.9,1496.4-22.9c1266.9,0,1445.9,4.6,1491.8,36.7c55.1,39,66.6,121.6,22.9,165.2C6631.8,1682.1,3666.6,1682.1,3627.5,1643.1z"/><path d="M1270.5-691c-114.8-29.8-204.3-84.9-303-192.8c-151.5-165.3-156.1-190.5-156.1-991.5c0-787.2,0-791.8,151.5-963.9c43.6-48.2,128.5-112.5,192.8-140c112.5-55.1,123.9-55.1,918-55.1s805.6,0,918,55.1c64.3,27.5,149.2,91.8,192.8,140c151.5,172.1,151.5,176.7,151.5,963.9c0,801-4.6,826.2-156.1,993.8c-188.2,202-174.4,199.7-1060.3,204.3C1690.5-674.9,1309.5-681.8,1270.5-691z M2867.9-922.8c43.6-11.5,110.2-55.1,149.2-94.1l66.6-68.9l6.9-743.6c6.9-826.2,4.6-842.3-140-929.5c-68.9-43.6-119.4-45.9-872.1-45.9c-881.3,0-892.8,2.3-980,144.6c-43.6,68.8-45.9,119.3-45.9,812.5v739l71.1,82.6c39,43.6,103.3,89.5,144.6,101C1366.9-895.2,2764.6-895.2,2867.9-922.8z"/><path d="M3645.9-1104.1c-34.4-64.3-27.5-105.6,18.4-146.9c39-34.4,176.7-39,1505.6-39c963.9,0,1478,9.2,1507.9,22.9c50.5,27.5,59.7,135.4,16.1,179c-20.6,20.7-390.2,27.5-1526.2,27.5C3710.2-1060.5,3668.9-1062.8,3645.9-1104.1z"/><path d="M3645.9-1792.6c-34.4-64.3-27.5-105.6,18.4-146.9c39-34.4,176.7-39,1505.6-39c963.9,0,1478,9.2,1507.9,22.9c50.5,27.5,59.7,135.4,16.1,179c-20.6,20.7-390.2,27.5-1526.2,27.5C3710.2-1749,3668.9-1751.3,3645.9-1792.6z"/><path d="M3645.9-2481.2c-34.4-64.3-27.5-105.6,18.4-146.9c39-34.4,176.7-39,1505.6-39c963.9,0,1478,9.2,1507.9,23c50.5,27.5,59.7,135.4,16.1,179c-20.6,20.7-390.2,27.5-1526.2,27.5C3710.2-2437.5,3668.9-2439.8,3645.9-2481.2z"/><path d="M8702,4376.6c-162.9-80.3-328.2-298.4-328.2-433.8c0-41.3-13.8-45.9-149.2-45.9c-87.2,0-179-13.8-215.7-32.1c-130.8-68.9-128.5-43.6-135.4-1517.1c-4.6-1482.6-6.9-1468.9,121.6-1468.9s126.2-11.5,119.4,1452.8l-4.6,1335.7h121.6h119.3V679.2c0-1663.9,9.2-3080,22.9-3192.4c34.4-332.8,107.9-576.1,293.8-980c190.5-408.5,261.6-509.5,383.3-550.8c185.9-62,291.5,34.4,495.7,454.4c183.6,378.7,250.2,557.7,312.1,835.4c39,179,41.3,378.7,41.3,3461v3270.5l-52.8,107.9c-59.7,121.6-202,259.3-316.7,307.5c-52.8,22.9-174.4,32.1-403.9,32.1C8839.7,4424.8,8786.9,4417.9,8702,4376.6z M9514.4,4149.3c156.1-94.1,146.9,172.1,140-3527.5l-6.9-3346.2l-52.8-172.1c-59.7-192.8-394.8-902-440.7-929.5c-16.1-9.2-43.6,0-68.9,25.2c-59.7,64.3-355.7,704.6-417.7,904.3l-52.8,172.1l-6.9,3346.2c-6.9,3699.7-16.1,3433.4,140,3527.5c64.3,39,117.1,45.9,383.3,45.9C9397.4,4195.2,9450.2,4188.4,9514.4,4149.3z"/></g></g>
</svg>
