<?xml version="1.0" encoding="utf-8"?>
<!-- Svg Vector Icons : http://www.onlinewebfonts.com/icon -->
<!DOCTYPE svg PUBLIC "-//W3C//DTD SVG 1.1//EN" "http://www.w3.org/Graphics/SVG/1.1/DTD/svg11.dtd">
<svg version="1.1" xmlns="http://www.w3.org/2000/svg" xmlns:xlink="http://www.w3.org/1999/xlink" x="0px" y="0px" viewBox="0 0 1000 1000" enable-background="new 0 0 1000 1000" xml:space="preserve">
<metadata> Svg Vector Icons : http://www.onlinewebfonts.com/icon </metadata>
<g><g transform="translate(0.000000,512.000000) scale(0.100000,-0.100000)"><path d="M1971.1,4994.6C1274,4803.1,1034.6,3952.8,1534.5,3451c224.1-222.2,553.5-316,850.3-237.5c360.1,93.8,639.7,392.6,704.8,754.6C3196.9,4575.2,2562.9,5157.4,1971.1,4994.6z"/><path d="M8775.7,3094.8c-616.7-216.4-1124.2-396.4-1128-400.3c-5.7-5.7,84.3-103.4,199.2-218.3l210.7-210.7L6649.9,857.9L5242.2-549.8l-823.5,823.5l-823.5,823.5l-216.4-214.5l-214.5-216.4v645.4v647.3l1633.6,3.8c1627.9,5.7,1631.7,5.7,1708.3,46c212.6,114.9,310.3,327.5,258.5,568.8c-26.8,132.2-109.2,249-214.5,304.5l-82.3,44l-2945.5,5.7c-1890.3,1.9-2972.4-1.9-3016.4-15.3c-130.2-34.5-275.8-137.9-339-237.5l-57.5-93.8l-5.7-1610.7c-3.8-1118.5,0-1639.4,15.3-1706.4c28.7-132.1,128.3-262.4,243.2-317.9c74.7-36.4,122.6-46,245.1-46c216.4,1.9,331.3,67,423.3,239.4c34.5,63.2,36.4,132.1,42.1,982.5l5.8,913.5h93.8h95.8V-155.3v-1195.1l-243.2-182l-245.1-183.9l-339,339l-340.9,339v-651.2v-651.2l335.2-335.2l335.2-335.2l180,180l181.9,181.9l5.7-909.7c5.7-875.2,7.7-911.6,46-994c21.1-47.9,72.8-118.8,114.9-158.9l72.8-70.9h266.2c314.1,0,342.8,13.4,429,187.7l53.6,109.2l5.7,1388.5l5.7,1388.5l80.4,82.3l80.4,82.3l9.6-1442.1c9.6-1434.5,9.6-1442.1,51.7-1520.6c97.7-183.9,235.6-266.2,446.2-266.2c174.3,0,254.7,40.2,314.1,153.2c40.2,76.6,40.2,88.1,46,2010.9l3.8,1934.3l216.4,216.4l214.5,214.5l827.4-827.4l829.3-829.3L6994.6-157.2l1742.8,1742.8l210.7-210.7c114.9-114.9,214.5-204.9,220.2-199.2c9.6,11.5,737.3,2304,731.6,2307.8C9898,3485.5,9392.4,3311.2,8775.7,3094.8z"/></g></g>
</svg>
