<?xml version="1.0" encoding="utf-8"?>
<!-- Svg Vector Icons : http://www.onlinewebfonts.com/icon -->
<!DOCTYPE svg PUBLIC "-//W3C//DTD SVG 1.1//EN" "http://www.w3.org/Graphics/SVG/1.1/DTD/svg11.dtd">
<svg version="1.1" xmlns="http://www.w3.org/2000/svg" xmlns:xlink="http://www.w3.org/1999/xlink" x="0px" y="0px" viewBox="0 0 1000 1000" enable-background="new 0 0 1000 1000" xml:space="preserve">
<metadata> Svg Vector Icons : http://www.onlinewebfonts.com/icon </metadata>
<g><path d="M842.6,541.1c10.9,0,21.9,4.3,30.3,12.6c16.8,16.8,16.8,44,0,60.6L664.4,822.9c-12.7,13.7-30.6,22.5-50.7,22.5H241.9c-14.3,0-33.9,8-44,18.1l-111.5,115c-7.8,7.7-15.1,11.5-21.1,11.5c-9.3,0-15.4-9.2-15.4-26.7v-117c0-14,8.1-33.9,18.2-44l71-74.1c0-0.1,144.3-155.8,144.3-155.8c8-8.7,19.3-14.3,32-14.3h246.6c23.8,0,43,19.1,43,42.9c0,23.7-19.3,43.1-43,43.1H406.2l-60.6,64h312.2l154.3-154.2C820.5,545.3,831.6,541.1,842.6,541.1L842.6,541.1z"/><path d="M872.7,380.2c9.4-16.4,16.7-34.2,21.7-52.8l0.7-3.2l54.9-13.8l-0.1-76l-54.8-13.8l-0.9-3c-5.1-19-12.4-36.6-21.9-52.7l-1.6-2.8l28.8-48.4l-53.9-53.8l-48.2,29l-2.8-1.5c-16.6-9.6-34.4-16.9-52.9-21.9l-3-0.7L725,10l-76.3,0.1L635,64.8l-3,0.9c-18.6,4.9-36.3,12.2-52.9,21.9l-2.8,1.6l-48.4-29l-53.8,54l29,48.3l-1.6,2.8c-9.6,16.5-16.9,34.3-21.8,52.9l-0.8,3.1L424.4,235l0.1,76.2l54.7,13.7l0.8,3c4.9,18.4,12.2,36.2,21.9,52.8l1.6,2.9l-29,48.4l54,53.8l48.4-29.1l2.8,1.7c16.4,9.6,34.1,16.8,52.8,21.7l3.2,0.9l13.7,54.7l76.2-0.1l13.6-54.8l3.2-0.8c18.5-4.9,36.1-12.2,52.8-21.9l2.7-1.5l48.4,28.9l53.8-53.9l-29-48.4L872.7,380.2z M688.1,450.6h-0.2c-98-0.2-177.5-80.2-177.4-178.1c0.1-97.8,79.9-177.3,177.6-177.3c98.3,0.1,178,80,177.8,178C865.8,371.1,786.1,450.6,688.1,450.6z"/><path d="M697.8,191.6c5.7-5.6,5.7-14.8,0-20.5c-2.7-2.8-6.2-4.2-10.3-4.2c-3.8,0-7.5,1.5-10.2,4.2c-5.6,5.7-5.6,14.8,0,20.5C682.8,197.1,692.4,197.1,697.8,191.6z"/><path d="M611.1,272.4c0-3.9-1.5-7.5-4.3-10.4c-2.7-2.7-6.4-4.1-10.1-4.1c-4,0-7.5,1.5-10.3,4.2c-5.6,5.7-5.6,14.8,0,20.5c5.4,5.5,15,5.5,20.4,0C609.5,279.9,611.1,276.2,611.1,272.4z"/><path d="M779.4,258.8c-3.8,0-7.4,1.5-10.3,4.2c-2.7,2.8-4.1,6.4-4.1,10.2c0,3.8,1.4,7.5,4.1,10.3c5.6,5.4,15.1,5.4,20.5,0c5.6-5.6,5.6-14.8,0-20.5C787,260.3,783.4,258.8,779.4,258.8z"/><path d="M757.3,292c-7,9.2-15,18.4-23.6,27.1c-8.6,8.4-17.4,16.2-26.5,23.2c0.6,0.4,1.2,0.9,1.7,1.4c3,3,5.1,6.5,6.5,10.4c9.8-7.5,19.3-15.8,28.5-24.9c9.4-9.5,18-19.1,25.5-29c-3.8-1.4-7.5-3.5-10.4-6.6C758.3,293.1,757.9,292.6,757.3,292z"/><path d="M757.6,254.1c0.6-0.4,0.9-0.9,1.4-1.4c3-3,6.8-5.3,10.6-6.7c-7.7-10-16.4-19.8-25.7-29.3c-9.3-9.3-19.1-17.9-29-25.4c-1.4,3.8-3.7,7.5-6.7,10.6c-0.6,0.5-1.1,0.9-1.5,1.4c9.3,7.2,18.3,15.1,27.2,23.6C742.5,235.6,750.5,244.8,757.6,254.1z"/><path d="M618.2,253.2c7.1-9,14.8-17.9,23.4-26.4c8.5-8.6,17.7-16.5,27.1-23.6c-0.6-0.4-1.1-0.9-1.5-1.4c-3.2-3-5.3-6.7-6.7-10.6c-10,7.5-19.7,16.1-29.2,25.4c-9.1,9.1-17.5,18.7-24.9,28.5c4.1,1.5,7.6,3.7,10.8,6.8C617.6,252.4,617.9,252.8,618.2,253.2z"/><path d="M617.8,292c-0.2,0.2-0.4,0.6-0.8,0.9c-3.3,3.3-7.2,5.6-11.4,7c7.6,9.9,16.2,19.8,25.6,29.3c9.7,9.6,19.6,18.2,29.7,25.8c1.4-4.2,3.7-8,7.1-11.4c0.2-0.3,0.6-0.5,0.9-0.8c-9.5-7.2-18.5-15.1-27.3-23.9C632.8,310.4,624.9,301.2,617.8,292z"/><path d="M797.6,162.9c-29.3-29.3-68.4-45.5-110.1-45.5c-41.5,0-80.5,16.3-110,45.5c-29.4,29.4-45.6,68.5-45.6,110.1s16.2,80.7,45.6,110.1c29.4,29.5,68.4,45.6,110,45.6c41.6,0,80.7-16.1,110.1-45.6C858.4,322.3,858.4,223.5,797.6,162.9z M803,306.9c-1.4-4.1-2.9-7.9-4.6-12c-3.6,3.3-8.2,5.6-12.9,6.6c1.4,3.4,2.7,6.6,3.8,10c5.8,17.4,7.1,32.2,3.9,43.8c-3.3,4.3-7,8.4-10.9,12.4c-3.9,3.9-8,7.5-12.3,10.8c-4.2,1.2-8.6,1.7-13.6,1.7c-11.9,0-25.6-3.3-39.9-9.1c-1.2,4.9-3.6,9.1-7,12.8c12.4,5.3,24.4,8.6,35.8,10.1c-17.9,8.5-37.5,12.9-57.9,12.9c-20.1,0-39.8-4.4-57.6-12.9c11.6-1.5,24-5.1,36.8-10.6c-3.3-3.6-5.4-8-6.5-12.9c-14.9,6.3-29,9.8-41.3,9.8c-5.1,0-9.6-0.5-13.7-1.7c-4.3-3.3-8.3-6.9-12.3-10.8c-3.8-4-7.5-8.1-10.9-12.4c-3.1-11.6-1.9-26.4,3.8-43.8c1.2-3.6,2.6-7.2,4.2-10.9c-4.8-1.2-9.2-3.5-12.9-6.7c-1.8,4.3-3.5,8.7-5,13c-2.8,8.3-4.6,16.1-5.6,23.6c-8.5-17.7-12.9-37.3-12.9-57.6c0-20.1,4.5-39.7,12.9-57.4c1.4,11.2,4.9,23.3,10.2,36c3.7-3.5,8.1-5.9,12.9-7.2c-8.5-20.6-11.5-39.5-7.7-53.7c3.3-4.3,7-8.4,10.8-12.2c4.1-4.1,8.1-7.7,12.4-11c4.1-1,8.6-1.7,13.7-1.7c12.2,0,26,3.3,40.5,9.4c1.1-4.7,3.2-9.1,6.5-13c-12.4-5.4-24.6-8.8-35.9-10.2c17.7-8.5,37.4-13,57.6-13c20.3,0,40,4.6,57.9,13c-11.4,1.4-23.5,4.9-36.2,10.2c3.5,3.8,5.6,8.3,6.8,13c14.5-6.1,28.3-9.4,40.5-9.4c4.9,0,9.4,0.7,13.6,1.7c4.3,3.3,8.4,7,12.3,10.9c4,3.8,7.5,8,10.9,12.2c3.8,14.3,0.9,33.4-7.8,54.3c4.8,0.9,9.3,3.1,13.1,6.5c5.2-12.5,8.8-24.6,10.2-35.8c17.1,36.2,17.1,78.6-0.1,114.8C807.7,323,805.8,315.2,803,306.9z"/><path d="M688.3,349.7c-3.8,0-7.5,1.5-10.2,4.2c-2.8,2.8-4.3,6.4-4.3,10.4s1.5,7.5,4.3,10.2c5.4,5.4,15,5.4,20.5,0c2.7-2.8,4.2-6.3,4.2-10.2s-1.5-7.5-4.2-10.4C696,351.3,692.4,349.7,688.3,349.7z"/></g>
</svg>
